<?xml version="1.0" standalone="no"?>
<!DOCTYPE svg PUBLIC "-//W3C//DTD SVG 20010904//EN"
 "http://www.w3.org/TR/2001/REC-SVG-20010904/DTD/svg10.dtd">
<svg version="1.0" xmlns="http://www.w3.org/2000/svg"
 width="347.000000pt" height="373.000000pt" viewBox="0 0 347.000000 373.000000"
 preserveAspectRatio="xMidYMid meet">

<g transform="translate(0.000000,373.000000) scale(0.100000,-0.100000)"
fill="#000000" stroke="none">
<path d="M1654 3660 c-12 -5 -69 -48 -126 -97 -58 -48 -337 -281 -619 -518
-592 -496 -820 -690 -834 -714 -13 -21 -19 -1916 -7 -2054 9 -98 10 -99 50
-140 33 -33 50 -42 94 -48 77 -11 2970 -10 3046 1 67 9 118 39 150 88 16 24
17 92 15 1002 -1 536 -5 1012 -8 1058 -6 75 -10 87 -38 119 -29 33 -1038 879
-1360 1141 -206 167 -215 172 -284 171 -32 0 -68 -4 -79 -9z m134 -719 c20
-11 71 -48 112 -83 222 -186 455 -379 710 -586 197 -161 291 -244 305 -270 19
-36 20 -56 20 -714 0 -542 -3 -680 -13 -690 -10 -10 -188 -14 -894 -16 l-882
-4 44 49 c61 68 504 529 679 706 l146 149 45 -6 c77 -10 137 -35 184 -77 62
-55 65 -69 21 -129 l-37 -50 116 -118 115 -117 146 145 c180 178 209 213 200
240 -9 28 -105 130 -155 165 -38 26 -44 28 -76 16 -19 -7 -43 -9 -54 -6 -31
10 -59 75 -86 199 l-24 111 -160 157 c-181 177 -270 242 -385 280 -148 49
-437 74 -548 49 -50 -12 -51 -14 -33 -49 12 -24 42 -43 138 -90 138 -67 232
-132 272 -191 24 -35 28 -52 33 -138 l5 -98 -587 -580 c-323 -319 -592 -581
-596 -583 -11 -4 -12 612 -2 1063 l6 318 30 33 c16 19 97 91 180 161 84 70
274 231 422 358 463 395 489 415 537 415 16 0 45 -9 66 -19z"/>
</g>
</svg>
